<svg xmlns="http://www.w3.org/2000/svg" viewBox="0 0 600 400" fill="none">
  <rect width="600" height="400" rx="16" fill="#f8f9fc"/>
  <rect x="24" y="24" width="552" height="60" rx="12" fill="white" stroke="#e1e2e5"/>
  <rect x="40" y="44" width="100" height="20" rx="4" fill="#5950b6"/>
  <rect x="480" y="44" width="80" height="20" rx="10" fill="#5950b6"/>
  <rect x="40" y="100" width="72" height="48" rx="8" fill="#5950b6" opacity="0.1"/>
  <text x="76" y="118" font-family="JetBrains Mono" font-size="10" fill="#5950b6" text-anchor="middle">08:00</text>
  <rect x="130" y="100" width="66" height="48" rx="8" fill="#9bf0d3" opacity="0.4" stroke="#006b55" stroke-width="2"/>
  <text x="163" y="120" font-family="Inter" font-size="10" fill="#0b7059" text-anchor="middle">Ana Garc a</text>
  <text x="163" y="136" font-family="Inter" font-size="8" fill="#0b7059" opacity="0.7" text-anchor="middle">Masaje (60m)</text>
  <rect x="210" y="100" width="66" height="80" rx="8" fill="#9d94ff" opacity="0.3" stroke="#5950b6" stroke-width="2"/>
  <text x="243" y="130" font-family="Inter" font-size="10" fill="#32258d" text-anchor="middle">Carlos L pez</text>
  <text x="243" y="146" font-family="Inter" font-size="8" fill="#32258d" opacity="0.7" text-anchor="middle">Facial (90m)</text>
  <rect x="290" y="100" width="66" height="48" rx="8" fill="#ffdcc5" opacity="0.4" stroke="#79573f" stroke-width="2"/>
  <text x="323" y="120" font-family="Inter" font-size="10" fill="#4e311c" text-anchor="middle">Laura D az</text>
  <text x="323" y="136" font-family="Inter" font-size="8" fill="#4e311c" opacity="0.7" text-anchor="middle">Yoga (45m)</text>
  <rect x="370" y="100" width="66" height="48" rx="8" fill="#e4dfff" opacity="0.4" stroke="#5950b6" stroke-width="2"/>
  <text x="403" y="120" font-family="Inter" font-size="10" fill="#32258d" text-anchor="middle">Mar aRo</text>
  <text x="403" y="136" font-family="Inter" font-size="8" fill="#32258d" opacity="0.7" text-anchor="middle">Corte (30m)</text>
  <rect x="450" y="100" width="66" height="48" rx="8" fill="#9bf0d3" opacity="0.4" stroke="#006b55" stroke-width="2"/>
  <text x="483" y="120" font-family="Inter" font-size="10" fill="#0b7059" text-anchor="middle">Pedro S.</text>
  <text x="483" y="136" font-family="Inter" font-size="8" fill="#0b7059" opacity="0.7" text-anchor="middle">Spa (120m)</text>
  <line x1="120" y1="90" x2="570" y2="90" stroke="#ba1a1a" stroke-width="2"/>
  <circle cx="116" cy="90" r="4" fill="#ba1a1a"/>
  <rect x="24" y="200" width="552" height="180" rx="12" fill="white" stroke="#e1e2e5"/>
  <rect x="40" y="220" width="160" height="14" rx="4" fill="#191c1e"/>
  <rect x="40" y="260" width="240" height="8" rx="4" fill="#e1e2e5"/>
  <rect x="40" y="280" width="200" height="8" rx="4" fill="#e1e2e5"/>
  <rect x="40" y="310" width="120" height="32" rx="8" fill="#5950b6"/>
  <rect x="320" y="220" width="232" height="140" rx="8" fill="#f8f9fc"/>
  <rect x="340" y="240" width="80" height="8" rx="4" fill="#e1e2e5"/>
  <rect x="340" y="260" width="192" height="60" rx="4" fill="white" stroke="#e1e2e5"/>
</svg>
