<svg xmlns="http://www.w3.org/2000/svg" viewBox="0 0 600 400" fill="none">
  <rect width="600" height="400" rx="16" fill="#f8f9fc"/>
  <rect x="24" y="24" width="552" height="80" rx="12" fill="#9d94ff" opacity="0.15"/>
  <rect x="40" y="40" width="32" height="32" rx="8" fill="#5950b6" opacity="0.3"/>
  <rect x="84" y="44" width="160" height="12" rx="4" fill="#5950b6"/>
  <rect x="84" y="64" width="240" height="8" rx="4" fill="#5950b6" opacity="0.4"/>
  <rect x="400" y="40" width="160" height="48" rx="8" fill="#5950b6"/>
  <rect x="420" y="56" width="120" height="8" rx="4" fill="white" opacity="0.8"/>
  <rect x="24" y="120" width="176" height="120" rx="12" fill="white" stroke="#e1e2e5"/>
  <rect x="40" y="136" width="80" height="8" rx="4" fill="#e1e2e5"/>
  <rect x="40" y="156" width="60" height="20" rx="4" fill="#5950b6"/>
  <rect x="120" y="156" width="40" height="20" rx="4" fill="#e1e2e5" opacity="0.5"/>
  <rect x="216" y="120" width="176" height="120" rx="12" fill="white" stroke="#e1e2e5"/>
  <rect x="232" y="136" width="80" height="8" rx="4" fill="#e1e2e5"/>
  <rect x="232" y="156" width="60" height="20" rx="4" fill="#006b55"/>
  <rect x="312" y="156" width="40" height="20" rx="4" fill="#e1e2e5" opacity="0.5"/>
  <rect x="408" y="120" width="168" height="120" rx="12" fill="white" stroke="#e1e2e5"/>
  <rect x="424" y="136" width="80" height="8" rx="4" fill="#e1e2e5"/>
  <rect x="424" y="156" width="60" height="20" rx="4" fill="#79573f"/>
  <rect x="504" y="156" width="40" height="20" rx="4" fill="#e1e2e5" opacity="0.5"/>
  <rect x="24" y="260" width="552" height="120" rx="12" fill="white" stroke="#e1e2e5"/>
  <rect x="40" y="280" width="120" height="12" rx="4" fill="#191c1e"/>
  <rect x="40" y="304" width="520" height="8" rx="4" fill="#e1e2e5"/>
  <rect x="40" y="324" width="520" height="8" rx="4" fill="#e1e2e5" opacity="0.6"/>
  <rect x="40" y="344" width="520" height="8" rx="4" fill="#e1e2e5" opacity="0.4"/>
  <rect x="40" y="364" width="200" height="8" rx="4" fill="#e1e2e5" opacity="0.3"/>
</svg>
