<svg xmlns="http://www.w3.org/2000/svg" viewBox="0 0 600 400" fill="none">
  <rect width="600" height="400" rx="16" fill="#f8f9fc"/>
  <rect x="24" y="24" width="552" height="60" rx="12" fill="white" stroke="#e1e2e5"/>
  <rect x="40" y="44" width="160" height="12" rx="4" fill="#191c1e"/>
  <rect x="480" y="40" width="80" height="28" rx="8" fill="#5950b6"/>
  <rect x="24" y="100" width="180" height="280" rx="12" fill="white" stroke="#e1e2e5"/>
  <rect x="40" y="116" width="120" height="8" rx="4" fill="#e1e2e5"/>
  <rect x="40" y="140" width="148" height="48" rx="8" fill="#f8f9fc" stroke="#e1e2e5"/>
  <rect x="56" y="156" width="24" height="24" rx="6" fill="#c8c4d4"/>
  <rect x="88" y="160" width="80" height="6" rx="3" fill="#e1e2e5"/>
  <rect x="40" y="200" width="148" height="48" rx="8" fill="#f8f9fc" stroke="#e1e2e5"/>
  <rect x="56" y="216" width="24" height="24" rx="6" fill="#c8c4d4"/>
  <rect x="88" y="220" width="80" height="6" rx="3" fill="#e1e2e5"/>
  <rect x="40" y="260" width="148" height="48" rx="8" fill="#f8f9fc" stroke="#e1e2e5"/>
  <rect x="56" y="276" width="24" height="24" rx="6" fill="#c8c4d4"/>
  <rect x="88" y="280" width="80" height="6" rx="3" fill="#e1e2e5"/>
  <rect x="224" y="100" width="352" height="280" rx="12" fill="white" stroke="#e1e2e5"/>
  <rect x="244" y="120" width="160" height="12" rx="4" fill="#191c1e"/>
  <rect x="244" y="144" width="312" height="8" rx="4" fill="#e1e2e5"/>
  <rect x="244" y="176" width="312" height="48" rx="8" fill="#f8f9fc" stroke="#e1e2e5" stroke-dasharray="4 4"/>
  <rect x="360" y="192" width="80" height="8" rx="4" fill="#c8c4d4"/>
  <rect x="244" y="240" width="312" height="48" rx="8" fill="#f8f9fc" stroke="#e1e2e5"/>
  <rect x="260" y="256" width="24" height="24" rx="6" fill="#9d94ff" opacity="0.3"/>
  <rect x="292" y="260" width="100" height="6" rx="3" fill="#e1e2e5"/>
  <rect x="292" y="272" width="60" height="4" rx="2" fill="#e1e2e5" opacity="0.5"/>
  <rect x="244" y="300" width="312" height="48" rx="8" fill="#f8f9fc" stroke="#e1e2e5"/>
  <rect x="260" y="316" width="24" height="24" rx="6" fill="#9bf0d3" opacity="0.3"/>
  <rect x="292" y="320" width="100" height="6" rx="3" fill="#e1e2e5"/>
  <rect x="292" y="332" width="60" height="4" rx="2" fill="#e1e2e5" opacity="0.5"/>
</svg>
